<svg width="82" height="34" viewBox="0 0 82 34" fill="none" xmlns="http://www.w3.org/2000/svg">
<path d="M21.24 28.36L21.04 33H16.88L16.68 28.36H0.68L12.84 0.919998L19.72 1.88L6 25.28L16.48 23.76L15.84 9.56H22.08L21.48 23.04L26.32 22.32V28.36H21.24ZM41.4172 33.8C39.9505 33.8 38.4972 33.44 37.0572 32.72C35.6172 32 34.3105 30.9467 33.1372 29.56C31.9639 28.1733 31.0305 26.4533 30.3372 24.4C29.6439 22.3467 29.2972 20 29.2972 17.36C29.2972 14.9867 29.6439 12.8133 30.3372 10.84C31.0305 8.84 31.9639 7.10667 33.1372 5.64C34.3105 4.14667 35.6172 3 37.0572 2.2C38.4972 1.37333 39.9505 0.959998 41.4172 0.959998C42.9105 0.959998 44.3772 1.36 45.8172 2.16C47.2572 2.96 48.5505 4.09333 49.6972 5.56C50.8705 7.02666 51.8039 8.76 52.4972 10.76C53.2172 12.76 53.5772 14.96 53.5772 17.36C53.5772 19.8667 53.2172 22.1333 52.4972 24.16C51.8039 26.1867 50.8705 27.92 49.6972 29.36C48.5505 30.8 47.2572 31.9067 45.8172 32.68C44.3772 33.4267 42.9105 33.8 41.4172 33.8ZM41.4172 30.92C42.2172 30.92 42.9505 30.5467 43.6172 29.8C44.3105 29.0267 44.9105 28 45.4172 26.72C45.9505 25.4133 46.3505 23.96 46.6172 22.36C46.9105 20.7333 47.0572 19.0667 47.0572 17.36C47.0572 15.7867 46.9105 14.2133 46.6172 12.64C46.3505 11.04 45.9639 9.58667 45.4572 8.28C44.9505 6.97333 44.3505 5.92 43.6572 5.12C42.9905 4.32 42.2439 3.92 41.4172 3.92C40.5905 3.92 39.8305 4.32 39.1372 5.12C38.4705 5.89333 37.8839 6.93333 37.3772 8.24C36.8705 9.54667 36.4705 11 36.1772 12.6C35.9105 14.1733 35.7772 15.76 35.7772 17.36C35.7772 19.0667 35.9105 20.7333 36.1772 22.36C36.4705 23.96 36.8705 25.4133 37.3772 26.72C37.8839 28 38.4839 29.0267 39.1772 29.8C39.8705 30.5467 40.6172 30.92 41.4172 30.92ZM76.4744 28.36L76.2744 33H72.1144L71.9144 28.36H55.9144L68.0744 0.919998L74.9544 1.88L61.2344 25.28L71.7144 23.76L71.0744 9.56H77.3144L76.7144 23.04L81.5544 22.32V28.36H76.4744Z" fill="#7C3AED"/>
</svg>
