<svg width="210" height="28" viewBox="0 0 210 28" fill="none" xmlns="http://www.w3.org/2000/svg">
<path d="M20.143 27.429L6.415 7.728L3.478 27.429H2.95L0.838 1.26H6.25L17.536 14.922L21.034 0.929999H21.661L20.407 27.429H20.143ZM38.0831 27.66C36.8291 27.66 35.5091 27.352 34.1231 26.736C32.7591 26.098 31.4721 25.185 30.2621 23.997C29.0521 22.809 28.0731 21.379 27.3251 19.707C26.5771 18.035 26.2031 16.154 26.2031 14.064C26.2031 12.436 26.4451 10.929 26.9291 9.543C27.4351 8.135 28.1061 6.881 28.9421 5.781C29.7781 4.681 30.7131 3.746 31.7471 2.976C32.7811 2.184 33.8371 1.59 34.9151 1.194C36.0151 0.775998 37.0711 0.566998 38.0831 0.566998C39.0731 0.566998 40.1071 0.775998 41.1851 1.194C42.2851 1.612 43.3411 2.217 44.3531 3.009C45.3871 3.779 46.3221 4.714 47.1581 5.814C47.9941 6.914 48.6541 8.157 49.1381 9.543C49.6221 10.929 49.8641 12.436 49.8641 14.064C49.8641 16.154 49.4901 18.035 48.7421 19.707C47.9941 21.379 47.0261 22.809 45.8381 23.997C44.6501 25.185 43.3741 26.098 42.0101 26.736C40.6461 27.352 39.3371 27.66 38.0831 27.66ZM39.4031 24.822C40.4371 24.822 41.3501 24.481 42.1421 23.799C42.9341 23.117 43.5501 22.171 43.9901 20.961C44.4521 19.729 44.6831 18.31 44.6831 16.704C44.6831 14.482 44.4301 12.546 43.9241 10.896C43.4181 9.224 42.7581 7.838 41.9441 6.738C41.1301 5.638 40.2611 4.813 39.3371 4.263C38.4351 3.713 37.5771 3.438 36.7631 3.438C35.7511 3.438 34.8381 3.779 34.0241 4.461C33.2101 5.121 32.5611 6.045 32.0771 7.233C31.6151 8.421 31.3841 9.818 31.3841 11.424C31.3841 13.778 31.6371 15.802 32.1431 17.496C32.6711 19.19 33.3421 20.576 34.1561 21.654C34.9921 22.732 35.8721 23.535 36.7961 24.063C37.7201 24.569 38.5891 24.822 39.4031 24.822ZM59.8113 27L58.9203 5.055L52.0563 5.946V0.929999L72.4833 2.811V3.273L64.9923 4.263L64.1013 27H59.8113ZM92.3671 15.648L92.1361 27H87.9121L86.6911 1.26H92.6971L92.6311 3.735L103.917 0.929999V6.276L92.5981 5.121L92.4001 14.328L102.432 11.886V17.133L92.3671 15.648ZM118.521 27.66C117.267 27.66 115.947 27.352 114.561 26.736C113.197 26.098 111.91 25.185 110.7 23.997C109.49 22.809 108.511 21.379 107.763 19.707C107.015 18.035 106.641 16.154 106.641 14.064C106.641 12.436 106.883 10.929 107.367 9.543C107.873 8.135 108.544 6.881 109.38 5.781C110.216 4.681 111.151 3.746 112.185 2.976C113.219 2.184 114.275 1.59 115.353 1.194C116.453 0.775998 117.509 0.566998 118.521 0.566998C119.511 0.566998 120.545 0.775998 121.623 1.194C122.723 1.612 123.779 2.217 124.791 3.009C125.825 3.779 126.76 4.714 127.596 5.814C128.432 6.914 129.092 8.157 129.576 9.543C130.06 10.929 130.302 12.436 130.302 14.064C130.302 16.154 129.928 18.035 129.18 19.707C128.432 21.379 127.464 22.809 126.276 23.997C125.088 25.185 123.812 26.098 122.448 26.736C121.084 27.352 119.775 27.66 118.521 27.66ZM119.841 24.822C120.875 24.822 121.788 24.481 122.58 23.799C123.372 23.117 123.988 22.171 124.428 20.961C124.89 19.729 125.121 18.31 125.121 16.704C125.121 14.482 124.868 12.546 124.362 10.896C123.856 9.224 123.196 7.838 122.382 6.738C121.568 5.638 120.699 4.813 119.775 4.263C118.873 3.713 118.015 3.438 117.201 3.438C116.189 3.438 115.276 3.779 114.462 4.461C113.648 5.121 112.999 6.045 112.515 7.233C112.053 8.421 111.822 9.818 111.822 11.424C111.822 13.778 112.075 15.802 112.581 17.496C113.109 19.19 113.78 20.576 114.594 21.654C115.43 22.732 116.31 23.535 117.234 24.063C118.158 24.569 119.027 24.822 119.841 24.822ZM154.142 0.929999H154.571L155.693 18.09C155.693 18.178 155.693 18.277 155.693 18.387C155.715 18.475 155.726 18.574 155.726 18.684C155.726 20.422 155.264 21.973 154.34 23.337C153.416 24.679 152.162 25.735 150.578 26.505C149.016 27.275 147.267 27.66 145.331 27.66C143.263 27.66 141.503 27.22 140.051 26.34C138.621 25.46 137.521 24.294 136.751 22.842C136.003 21.39 135.596 19.806 135.53 18.09L134.87 1.26H140.975L139.985 17.826C139.985 17.958 139.974 18.09 139.952 18.222C139.952 18.332 139.952 18.442 139.952 18.552C139.952 20.598 140.447 22.226 141.437 23.436C142.427 24.624 143.725 25.218 145.331 25.218C146.211 25.218 147.014 24.899 147.74 24.261C148.488 23.601 149.126 22.699 149.654 21.555C150.204 20.389 150.622 19.058 150.908 17.562L154.142 0.929999ZM180.792 27.429L167.064 7.728L164.127 27.429H163.599L161.487 1.26H166.899L178.185 14.922L181.683 0.929999H182.31L181.056 27.429H180.792ZM188.173 1.26H194.179L194.113 4.296C195.059 3.306 196.115 2.558 197.281 2.052C198.447 1.524 199.646 1.26 200.878 1.26C202.198 1.26 203.408 1.568 204.508 2.184C205.63 2.778 206.598 3.614 207.412 4.692C208.226 5.748 208.853 6.969 209.293 8.355C209.733 9.741 209.953 11.215 209.953 12.777C209.953 14.383 209.711 15.956 209.227 17.496C208.215 20.73 206.092 23.194 202.858 24.888C199.624 26.582 195.136 27.429 189.394 27.429L188.173 1.26ZM193.651 25.581C196.863 24.525 199.283 23.282 200.911 21.852C202.539 20.422 203.551 19.036 203.947 17.694C204.299 16.484 204.475 15.175 204.475 13.767C204.475 12.293 204.288 10.885 203.914 9.543C203.54 8.201 203.012 7.09 202.33 6.21C201.67 5.33 200.911 4.835 200.053 4.725C199.591 4.659 199.14 4.626 198.7 4.626C197.93 4.626 197.16 4.725 196.39 4.923C195.62 5.099 194.85 5.396 194.08 5.814L193.651 25.581Z" fill="black"/>
</svg>
